<?xml version="1.0" encoding="utf-8"?>
<!-- Generator: Adobe Illustrator 23.0.6, SVG Export Plug-In . SVG Version: 6.00 Build 0)  -->
<svg version="1.1" id="Layer_1" xmlns="http://www.w3.org/2000/svg" xmlns:xlink="http://www.w3.org/1999/xlink" x="0px" y="0px"
	 viewBox="0 0 228.6 139.1" style="enable-background:new 0 0 228.6 139.1;" xml:space="preserve">
<style type="text/css">
	.st0{fill:#20438A;}
	.st1{fill:#FFFFFF;}
</style>
<path class="st0" d="M115.4,128.2C115.4,128.2,115.4,128.2,115.4,128.2C115.3,128.2,115.3,128.2,115.4,128.2
	C115.3,128.2,115.3,128.2,115.4,128.2C115.3,128.2,115.3,128.2,115.4,128.2z"/>
<g>
	<path class="st1" d="M2.7,109.3l2.9-4h0.2c1,1.1,3.4,2.7,6.3,2.7c1.7,0,2.9-0.7,2.9-2.1c0-1.4-0.7-2.1-4.5-3.9
		c-5.1-2.4-6.4-4.8-6.3-8.1c0.1-3.5,3.2-6.6,8-6.6c3.7,0,6.3,1.1,7.8,2.1l-2.1,4.7h-0.1c-1.5-1.2-3.3-2.2-5.6-2.2
		c-1.3,0-2.2,0.5-2.2,1.5c0,1.1,0.3,1.6,4.7,3.9c5,2.6,6.2,4.4,6.1,8.2c-0.1,3.4-3.5,7-8.9,7C7,112.6,4.5,111,2.7,109.3z"/>
	<path class="st1" d="M23.6,103.3V87.8h6v14.5c0,2.7,0.8,5.7,4.7,5.7c3.3,0,4.9-1.7,4.9-5.7V87.8h6V103c0,6.7-4.9,9.6-11.2,9.6
		C27.2,112.6,23.6,109.2,23.6,103.3z"/>
	<path class="st1" d="M54.1,99.4H54v12.8h-5.8V87.6h1.1l14.4,13h0.1V87.8h5.8v24.6h-1.1L54.1,99.4z"/>
	<path class="st1" d="M81.7,103L72,87.8v-0.1h6.8l6.1,9.7h0.2l6.1-9.7h6.3v0.1L87.6,103v9.2h-6V103z"/>
	<path class="st1" d="M107.6,87.8h14.3l-0.5,4.8h-8v4.7h7.8l-0.4,4.9h-7.4v5.1h9.3l-0.5,5h-14.6V87.8z"/>
	<path class="st1" d="M129.2,87.4h1l10.6,13.9h0.1l9.9-13.9h0.9l3.5,24.8H149l-1.5-11.7h-0.2l-6.5,9h-0.6l-6.7-9.2h-0.1l-1.6,11.8
		h-6.1L129.2,87.4z"/>
	<path class="st1" d="M158,87.8h9.8c5.5,0,9,2.7,9,7.7c0,6.4-5,8.8-9.6,8.8h-3.3v8H158V87.8z M165.7,99.7c3.4,0,4.8-1.4,4.8-3.8
		c0-2.3-1.2-3.6-4-3.6h-2.5v7.4H165.7z"/>
	<path class="st1" d="M179.6,87.8h6v24.4h-6V87.8z"/>
	<path class="st1" d="M189.9,87.8h10.7c4.1,0,7,2.8,7,6.7c0,3.2-1.6,5.8-4,7v0.1l5.8,10.5v0.1h-6.4l-5.2-9.6h-2.1v9.6h-5.8V87.8z
		 M198.1,98.3c1.6,0,3-1.1,3-3s-1.1-3-2.8-3h-2.6v6H198.1z"/>
	<path class="st1" d="M211.7,87.8H226l-0.5,4.8h-8v4.7h7.8l-0.4,4.9h-7.4v5.1h9.3l-0.5,5h-14.6V87.8z"/>
</g>
<g>
	<path class="st1" d="M47.2,130l1.4-1.9h0.1c0.5,0.5,1.6,1.2,3,1.2c0.8,0,1.4-0.3,1.4-1c0-0.7-0.3-1-2.1-1.8c-2.4-1.2-3-2.3-3-3.8
		c0-1.7,1.5-3.1,3.8-3.1c1.7,0,3,0.5,3.7,1l-1,2.2h0c-0.7-0.6-1.6-1.1-2.7-1c-0.6,0-1,0.3-1,0.7c0,0.5,0.2,0.8,2.2,1.8
		c2.3,1.2,2.9,2.1,2.9,3.9c-0.1,1.6-1.6,3.3-4.2,3.3C49.2,131.5,48.1,130.8,47.2,130z"/>
	<path class="st1" d="M60.8,122.1h-3.6l-0.1-2.3h10.2l-0.2,2.3h-3.6v9.3h-2.8V122.1z"/>
	<path class="st1" d="M72.8,119.8h0.6l5.7,11.5h-3.2l-1-2.2h-3.7l-1.1,2.2h-2.9L72.8,119.8z M74.1,127l-1-2.3h0L72,127H74.1z"/>
	<path class="st1" d="M82.5,122.1H79l-0.1-2.3h10.2l-0.2,2.3h-3.6v9.3h-2.8V122.1z"/>
	<path class="st1" d="M91.4,119.8h6.7l-0.2,2.3h-3.7v2.2h3.7l-0.2,2.3h-3.5v2.4h4.4l-0.2,2.3h-6.9V119.8z"/>
	<path class="st1" d="M105.3,125.8c0-4,2.8-6.2,6.6-6.2c1.5,0,2.9,0.4,4.1,1.2l-1.1,2.3h-0.1c-0.8-0.9-1.8-1.4-2.9-1.4
		c-2.1,0-3.5,1.4-3.5,3.7c0,2.7,1.7,3.9,3.5,3.9c1.2,0,2.3-0.6,3.1-1.3h0.1l1,2c-1.1,1-2.6,1.5-4.4,1.5
		C108,131.5,105.3,129.4,105.3,125.8z"/>
	<path class="st1" d="M117.8,125.9c0-4.1,3-6.2,6.7-6.2c3.5,0,6.2,2.3,6.2,5.6c0,3.8-2.8,6.3-6.8,6.3
		C120.5,131.5,117.8,129.5,117.8,125.9z M127.5,125.8c0-2.4-1.5-4-3.4-4c-2,0-3.2,1.2-3.2,3.8c0,2.5,1.6,3.9,3.3,3.9
		C126.1,129.4,127.5,128.4,127.5,125.8z"/>
	<path class="st1" d="M133.5,119.8h2.8v9.2h3.9l-0.3,2.3h-6.5V119.8z"/>
	<path class="st1" d="M142.5,119.8h2.8v9.2h3.9l-0.3,2.3h-6.5V119.8z"/>
	<path class="st1" d="M151.4,119.8h6.7l-0.2,2.3h-3.7v2.2h3.7l-0.2,2.3h-3.5v2.4h4.4l-0.2,2.3h-6.9V119.8z"/>
	<path class="st1" d="M160.7,125.9c0-4.2,3.1-6.3,6.7-6.3c2,0,3.6,0.7,4.3,1.4l-1.1,2.2h-0.1c-0.7-0.7-1.7-1.4-3.4-1.4
		c-2,0-3.3,1.2-3.3,3.7c0,2.7,1.4,4,3.8,4c0.9,0,1.5-0.2,1.9-0.4v-1.7h-2.1v-2.1h4.7v5.3c-0.9,0.4-2.5,0.9-4.9,0.9
		C163.3,131.5,160.7,129.7,160.7,125.9z"/>
	<path class="st1" d="M175.1,119.8h6.7l-0.2,2.3h-3.7v2.2h3.7l-0.2,2.3h-3.5v2.4h4.4l-0.2,2.3h-6.9V119.8z"/>
</g>
<g>
	<path class="st1" d="M115.4,5.2c-16.4,0-28.1,8.6-28.1,8.6s0,19.4,0,33.3s28.1,28.2,28.1,28.2s28-14.3,28-28.2c0-3.8,0-33.3,0-33.3
		S131.8,5.2,115.4,5.2z M137.7,47.1c0,7.9-16.1,18.3-16.1,18.3l0.7-5.1c0.1-0.4-0.3-0.8-0.7-0.8c0,0-1.7,0.5-6.2,0.5
		c-4.5,0-6.1-0.4-6.1-0.4c-0.5,0-0.8,0.4-0.8,0.8l0.7,5.1c0,0-17.2-10.4-17.2-18.3s0-29.5,0-29.5s9.3-6.4,23.4-6.4
		s22.4,6.4,22.4,6.4S137.7,39.2,137.7,47.1z"/>
	<path class="st1" d="M122.8,55.6c-0.3-0.3-0.8-0.4-1.2-0.4H109c-0.5,0-0.9,0.2-1.2,0.4l0,0c-0.6,0.5-0.6,1.4,0,1.9
		c0.5,0.4,14.3,0.6,15,0l0,0C123.5,57,123.5,56.1,122.8,55.6L122.8,55.6z"/>
	<path class="st1" d="M125.6,41.1c-2.9,0-2.5,0.7-2.5,0.7c-0.1,0-0.1,0-0.2,0c0,0,0.2-0.7-2.7-0.7s-2.5,0.7-2.5,0.7
		c-0.1,0-0.1,0-0.2,0c0,0,0.3-0.7-2.6-0.7c-2.9,0-2.5,0.7-2.5,0.7c-0.1,0-0.1,0-0.2,0c0,0,0.3-0.7-2.6-0.7s-2.6,0.7-2.6,0.7
		c-0.1,0-0.1,0-0.2,0c0,0,0.2-0.7-2.7-0.7s-2.5,0.7-2.5,0.7c2,3.9,1.2,5.6,1,7c-0.1,0.6,0.2,1.2,0.6,1.3c0.5,0.2,2.1,0.3,4.2,0.4
		c0.8,0.6,1.7,1.3,1.8,2.3c0,0.2,0.2,0.3,0.3,0.3h11.5c0.1,0,0.2-0.2,0.3-0.4c0.1-1,0.8-1.7,1.5-2.2c1.8-0.1,3.2-0.2,3.7-0.3
		c0.5-0.2,0.8-0.9,0.6-1.6c-0.4-1.4-0.7-3.7,0.9-6.8C128.2,41.8,128.5,41.1,125.6,41.1z"/>
	<g>
		<path class="st1" d="M105.2,31.9c-0.6,1.7-0.7,3.4,0.3,5c0.9,1.1,2,1.7,3.4,1.9c0.5,0,1.2-0.2,1.4-0.7c0.2-0.6,0.5-2.3,0.8-2.6
			c0.7-1.2,1.4-1.7,2.5-2.2c1.8-1,5.2-0.6,7.4-1.1c6.6-1.8,1.4-7.9,2.7-10.4c-0.3-0.1-1.4,1.6-1.6,2.2c-0.3,0.7-2.2,3.2-6.1,3.4
			c-2.6,0.3-3,0.1-4.4,0.2C108.6,27.9,106.3,29.1,105.2,31.9z"/>
		<path class="st1" d="M103.8,32.4c1.1-5.4,5.8-5.5,7.2-6c6.8-0.9,3-4.2,4.7-7.8c-2.9,1.1-2.2,3.3-4.3,4.4c-1.2,0.5-3.8,0.7-6.1,2.5
			c-1.4,1.1-2.2,2.6-2.5,4.3C102.5,30.6,103.3,32.5,103.8,32.4z"/>
		<path class="st1" d="M115.9,33.7C113.8,34.1,115.9,33.8,115.9,33.7c-1.3,0.2-3.9,1.1-4.4,4.1c-0.1,0.8,0.1,1.7,0.9,1.8
			c0.8,0.1,1.9-0.1,2.7-0.1c1.6,0,3.4-0.1,4.9-0.2c6.4-0.2,2.8-1.3,3.8-2.9c0.7-0.7,1.5-0.8,2.2-2.5c0.5-1.2,0-3.1,1.6-4.7
			c-0.3-0.2-1.5,0.5-2.3,1.5c-0.5,0.7-1.6,2.3-4.3,2.6C120,33.3,117.9,33.4,115.9,33.7z"/>
	</g>
</g>
</svg>
